<svg width="14" height="14" viewBox="0 0 14 14" fill="none" xmlns="http://www.w3.org/2000/svg">
<path d="M9.66667 7C9.66667 7.70724 9.38572 8.38552 8.88562 8.88562C8.38552 9.38572 7.70724 9.66667 7 9.66667C6.29276 9.66667 5.61448 9.38572 5.11438 8.88562C4.61428 8.38552 4.33333 7.70724 4.33333 7C4.33333 6.29276 4.61428 5.61448 5.11438 5.11438C5.61448 4.61428 6.29276 4.33333 7 4.33333C7.70724 4.33333 8.38552 4.61428 8.88562 5.11438C9.38572 5.61448 9.66667 6.29276 9.66667 7ZM9.66667 7L9.66667 7.9999C9.66667 8.44193 9.84226 8.86585 10.1548 9.17841C10.4674 9.49097 10.8913 9.66656 11.3333 9.66656C11.7754 9.66656 12.1993 9.49097 12.5118 9.17841C12.8244 8.86585 13 8.44193 13 7.9999V6.9999C13.0017 5.71063 12.588 4.45513 11.8203 3.41936C11.0525 2.38359 9.97161 1.62267 8.73759 1.2493C7.50357 0.875929 6.18211 0.90998 4.96896 1.34641C3.7558 1.78283 2.7155 2.59842 2.00214 3.67235C1.28878 4.74628 0.940315 6.02143 1.00837 7.30889C1.07642 8.59636 1.55737 9.82767 2.37997 10.8204C3.20257 11.8132 4.32306 12.5145 5.57546 12.8206C6.82786 13.1267 8.14555 13.0213 9.33333 12.5199" stroke="#666666" stroke-width="1.33" stroke-linecap="round" stroke-linejoin="round"/>
</svg>
