<svg width="12" height="14" viewBox="0 0 12 14" fill="none" xmlns="http://www.w3.org/2000/svg">
<path d="M8.66675 1V3.66667M3.33341 1V3.66667M0.666748 6.33333H11.3334M0.666748 3.66667C0.666748 3.31304 0.807224 2.97391 1.05727 2.72386C1.30732 2.47381 1.64646 2.33333 2.00008 2.33333H10.0001C10.3537 2.33333 10.6928 2.47381 10.9429 2.72386C11.1929 2.97391 11.3334 3.31304 11.3334 3.66667V11.6667C11.3334 12.0203 11.1929 12.3594 10.9429 12.6095C10.6928 12.8595 10.3537 13 10.0001 13H2.00008C1.64646 13 1.30732 12.8595 1.05727 12.6095C0.807224 12.3594 0.666748 12.0203 0.666748 11.6667V3.66667ZM3.33341 9H4.66675V10.3333H3.33341V9Z" stroke="#666666" stroke-width="1.33" stroke-linecap="round" stroke-linejoin="round"/>
</svg>
