<svg width="13" height="12" viewBox="0 0 13 12" fill="none" xmlns="http://www.w3.org/2000/svg">
<path d="M9.16675 3.33366V2.00033C9.16675 1.6467 9.02627 1.30756 8.77622 1.05752C8.52617 0.807468 8.18704 0.666992 7.83341 0.666992H2.50008C2.14646 0.666992 1.80732 0.807468 1.55727 1.05752C1.30722 1.30756 1.16675 1.6467 1.16675 2.00033V7.33366C1.16675 7.68728 1.30722 8.02642 1.55727 8.27647C1.80732 8.52652 2.14646 8.66699 2.50008 8.66699H3.83341M3.83341 4.66699C3.83341 4.31337 3.97389 3.97423 4.22394 3.72418C4.47399 3.47413 4.81313 3.33366 5.16675 3.33366H10.5001C10.8537 3.33366 11.1928 3.47413 11.4429 3.72418C11.6929 3.97423 11.8334 4.31337 11.8334 4.66699V10.0003C11.8334 10.3539 11.6929 10.6931 11.4429 10.9431C11.1928 11.1932 10.8537 11.3337 10.5001 11.3337H5.16675C4.81313 11.3337 4.47399 11.1932 4.22394 10.9431C3.97389 10.6931 3.83341 10.3539 3.83341 10.0003V4.66699Z" stroke="#999999" stroke-width="1.1" stroke-linecap="round" stroke-linejoin="round"/>
</svg>
