<svg width="19" height="16" viewBox="0 0 19 16" fill="none" xmlns="http://www.w3.org/2000/svg">
<path d="M9 12.3337H3.16667C2.72464 12.3337 2.30072 12.1581 1.98816 11.8455C1.67559 11.5329 1.5 11.109 1.5 10.667V2.33366M1.5 2.33366C1.5 1.89163 1.67559 1.46771 1.98816 1.15515C2.30072 0.842587 2.72464 0.666992 3.16667 0.666992H14.8333C15.2754 0.666992 15.6993 0.842587 16.0118 1.15515C16.3244 1.46771 16.5 1.89163 16.5 2.33366M1.5 2.33366L9 7.33366L16.5 2.33366M16.5 2.33366V6.50033M14.8333 14.0003C14.3913 14.0003 13.9674 13.8247 13.6548 13.5122C13.3423 13.1996 13.1667 12.7757 13.1667 12.3337C13.1667 11.8916 13.3423 11.4677 13.6548 11.1551C13.9674 10.8426 14.3913 10.667 14.8333 10.667M14.8333 14.0003C15.2754 14.0003 15.6993 13.8247 16.0118 13.5122C16.3244 13.1996 16.5 12.7757 16.5 12.3337C16.5 11.8916 16.3244 11.4677 16.0118 11.1551C15.6993 10.8426 15.2754 10.667 14.8333 10.667M14.8333 14.0003V15.2503M14.8333 10.667V9.41699M17.3611 10.8753L16.2786 11.5003M13.3906 13.167L12.3073 13.792M12.3073 10.8753L13.3906 11.5003M16.2786 13.167L17.362 13.792" stroke="#999999" stroke-width="1.33" stroke-linecap="round" stroke-linejoin="round"/>
</svg>
