<svg width="12" height="12" viewBox="0 0 12 12" fill="none" xmlns="http://www.w3.org/2000/svg">
<path d="M0.666748 11.3337L3.00008 9.00033M8.00008 0.666992L5.66675 3.00033M11.3334 4.00033L9.00008 6.33366M4.52428 2.00033L10.0009 7.47699L8.63162 8.84632C8.27464 9.21759 7.8472 9.51394 7.37431 9.71801C6.90142 9.92209 6.39257 10.0298 5.87755 10.0349C5.36253 10.0399 4.85167 9.9422 4.37487 9.74743C3.89806 9.55267 3.46489 9.26477 3.1007 8.90057C2.73651 8.53638 2.44861 8.10321 2.25384 7.62641C2.05908 7.14961 1.96136 6.63875 1.96641 6.12372C1.97146 5.6087 2.07918 5.09986 2.28326 4.62697C2.48734 4.15408 2.78368 3.72664 3.15495 3.36966L4.52428 2.00033Z" stroke="#666666" stroke-width="1.33" stroke-linecap="round" stroke-linejoin="round"/>
</svg>
