<svg width="12" height="13" viewBox="0 0 12 13" fill="none" xmlns="http://www.w3.org/2000/svg">
<path d="M11.25 11.5L7.75 8M0.75 5.08333C0.75 5.61956 0.855619 6.15054 1.06083 6.64596C1.26603 7.14137 1.56681 7.59151 1.94598 7.97069C2.32515 8.34986 2.7753 8.65063 3.27071 8.85584C3.76612 9.06105 4.2971 9.16667 4.83333 9.16667C5.36956 9.16667 5.90054 9.06105 6.39596 8.85584C6.89137 8.65063 7.34151 8.34986 7.72069 7.97069C8.09986 7.59151 8.40063 7.14137 8.60584 6.64596C8.81105 6.15054 8.91667 5.61956 8.91667 5.08333C8.91667 4.5471 8.81105 4.01612 8.60584 3.52071C8.40063 3.0253 8.09986 2.57515 7.72069 2.19598C7.34151 1.81681 6.89137 1.51603 6.39596 1.31083C5.90054 1.10562 5.36956 1 4.83333 1C4.2971 1 3.76612 1.10562 3.27071 1.31083C2.7753 1.51603 2.32515 1.81681 1.94598 2.19598C1.56681 2.57515 1.26603 3.0253 1.06083 3.52071C0.855619 4.01612 0.75 4.5471 0.75 5.08333Z" stroke="#666666" stroke-width="1.33" stroke-linecap="round" stroke-linejoin="round"/>
</svg>
