<svg width="12" height="12" viewBox="0 0 12 12" fill="none" xmlns="http://www.w3.org/2000/svg">
  <path d="M1.33325 3.08333H10.6666M4.83325 5.41667V8.91667M7.16659 5.41667V8.91667M1.91659 3.08333L2.49992 10.0833C2.49992 10.3928 2.62283 10.6895 2.84163 10.9083C3.06042 11.1271 3.35717 11.25 3.66659 11.25H8.33325C8.64267 11.25 8.93942 11.1271 9.15821 10.9083C9.377 10.6895 9.49992 10.3928 9.49992 10.0833L10.0833 3.08333M4.24992 3.08333V1.33333C4.24992 1.17862 4.31138 1.03025 4.42077 0.920854C4.53017 0.811458 4.67854 0.75 4.83325 0.75H7.16659C7.3213 0.75 7.46967 0.811458 7.57906 0.920854C7.68846 1.03025 7.74992 1.17862 7.74992 1.33333V3.08333" stroke="#f83e3e" stroke-width="1.33" stroke-linecap="round" stroke-linejoin="round"/>
</svg>
